# xmcd
#
# Track frame offsets: 
#        150
#        13600
#        28675
#        38575
#        51425
#        64475
#        77450
#        91475
#        107975
#        121450
#        133825
#        149325
#
# Disc length: 2143 seconds
#
# Revision: 0
# Processed by: cddbd v1.5.1PL0 Copyright (c) Steve Scherf et al.
# Submitted via: ExactAudioCopy v0.95a5
#
DISCID=a9085d0c
DTITLE=Original River Road Boys - 2000
DYEAR=2000
DGENRE=Western Swing
TTITLE0=Shame, Shame On You
TTITLE1=I'll Be Lucky Someday
TTITLE2=Don't Get Around Much Anymore
TTITLE3=It Makes No Difference Now
TTITLE4=I Ain't Got Nobody
TTITLE5=River Road Chimes
TTITLE6=Invitation To The Blues
TTITLE7=Night Life
TTITLE8=My Shoes Keep Walking Back To You
TTITLE9=My Window Faces The South
TTITLE10=I Wish I Felt This Way At Home
TTITLE11=C-Jam Blues
EXTD=
EXTT0=
EXTT1=
EXTT2=
EXTT3=
EXTT4=
EXTT5=
EXTT6=
EXTT7=
EXTT8=
EXTT9=
EXTT10=
EXTT11=
PLAYORDER=
